<svg width="32" height="25" viewBox="0 0 32 25" fill="none" xmlns="http://www.w3.org/2000/svg">
<path d="M25.8008 5.3335H27.8008C28.3528 5.3335 28.8008 5.85616 28.8008 6.50016V18.1668C28.8008 18.8108 28.3528 19.3335 27.8008 19.3335H25.8008C25.2488 19.3335 24.8008 18.8108 24.8008 18.1668V6.50016C24.8008 5.85616 25.2488 5.3335 25.8008 5.3335Z" stroke="#FAC00C" stroke-width="2.66667"/>
<path d="M21.8008 1.3335H23.8008C24.3528 1.3335 24.8008 1.8263 24.8008 2.4335V22.2335C24.8008 22.8407 24.3528 23.3335 23.8008 23.3335H21.8008C21.2488 23.3335 20.8008 22.8407 20.8008 22.2335V2.4335C20.8008 1.8263 21.2488 1.3335 21.8008 1.3335Z" stroke="#FAC00C" stroke-width="2.66667"/>
<path d="M8.19922 1.3335H10.1992C10.7512 1.3335 11.1992 1.8263 11.1992 2.4335V22.2335C11.1992 22.8407 10.7512 23.3335 10.1992 23.3335H8.19922C7.64722 23.3335 7.19922 22.8407 7.19922 22.2335V2.4335C7.19922 1.8263 7.64722 1.3335 8.19922 1.3335Z" stroke="#FAC00C" stroke-width="2.66667"/>
<path d="M4.19922 5.3335H6.19922C6.75123 5.3335 7.19923 5.85616 7.19923 6.50016V18.1668C7.19923 18.8108 6.75123 19.3335 6.19922 19.3335H4.19922C3.64722 19.3335 3.19922 18.8108 3.19922 18.1668V6.50016C3.19922 5.85616 3.64722 5.3335 4.19922 5.3335Z" stroke="#FAC00C" stroke-width="2.66667"/>
<path d="M28.8008 12.3335H32.0008" stroke="#FAC00C" stroke-width="2.66667"/>
<path d="M11.1992 12.3335H20.7992" stroke="#FAC00C" stroke-width="2.66667"/>
<path d="M0 12.3335H3.20001" stroke="#FAC00C" stroke-width="2.66667"/>
</svg>
