<svg width="24" height="24" viewBox="0 0 24 24" fill="none" xmlns="http://www.w3.org/2000/svg">
<path fill-rule="evenodd" clip-rule="evenodd" d="M18.7574 6.0756C18.7574 9.9096 15.8595 13.2 12.0006 13.2C8.13877 13.2 5.24387 9.9096 5.24387 6.0744C5.24387 2.2416 7.73637 0 12.0006 0C16.2649 0 18.7574 2.2404 18.7574 6.0756ZM0.141751 21.7704C0.71983 22.32 3.20933 24 12.0006 24C20.792 24 23.28 22.32 23.8595 21.7716C23.9133 21.7189 23.953 21.658 23.9763 21.5926C23.9995 21.5271 24.0058 21.4586 23.9947 21.3912C23.8625 20.3328 22.6704 15.6 12.0006 15.6C1.33094 15.6 0.138747 20.3328 0.00511334 21.3912C-0.00576068 21.4587 0.000750542 21.5273 0.0242477 21.5927C0.047745 21.6581 0.0877319 21.7178 0.141751 21.7704Z" fill="#FAC00C"/>
</svg>
